<?xml version="1.0" encoding="UTF-8" standalone="no"?>
<svg
   xmlns:dc="http://purl.org/dc/elements/1.1/"
   xmlns:cc="http://creativecommons.org/ns#"
   xmlns:rdf="http://www.w3.org/1999/02/22-rdf-syntax-ns#"
   xmlns:svg="http://www.w3.org/2000/svg"
   xmlns="http://www.w3.org/2000/svg"
   xmlns:sodipodi="http://sodipodi.sourceforge.net/DTD/sodipodi-0.dtd"
   xmlns:inkscape="http://www.inkscape.org/namespaces/inkscape"
   width="128mm"
   height="128mm"
   viewBox="0 0 128 128"
   version="1.1"
   id="svg8"
   inkscape:version="1.0.1 (c497b03c, 2020-09-10)"
   sodipodi:docname="plusicon2.svg">
  <defs
     id="defs2" />
  <sodipodi:namedview
     id="base"
     pagecolor="#ffffff"
     bordercolor="#666666"
     borderopacity="1.0"
     inkscape:pageopacity="0.0"
     inkscape:pageshadow="2"
     inkscape:zoom="1.7505531"
     inkscape:cx="206.27853"
     inkscape:cy="242.72365"
     inkscape:document-units="mm"
     inkscape:current-layer="layer1"
     inkscape:document-rotation="0"
     showgrid="false"
     inkscape:window-width="1680"
     inkscape:window-height="1050"
     inkscape:window-x="0"
     inkscape:window-y="0"
     inkscape:window-maximized="0" />
  <metadata
     id="metadata5">
    <rdf:RDF>
      <cc:Work
         rdf:about="">
        <dc:format>image/svg+xml</dc:format>
        <dc:type
           rdf:resource="http://purl.org/dc/dcmitype/StillImage" />
        <dc:title></dc:title>
      </cc:Work>
    </rdf:RDF>
  </metadata>
  <g
     inkscape:label="Layer 1"
     inkscape:groupmode="layer"
     id="layer1">
    <path
       id="rect837"
       style="fill-opacity:1;fill-rule:nonzero;stroke:none;stroke-width:1.665;stroke-linecap:round;stroke-linejoin:round;stroke-dashoffset:25.7008;paint-order:stroke fill markers"
       d="m 5,74.383333 c -2.77,0 -5,-2.23 -5,-5 V 58.616667 c 0,-2.77 2.23,-5 5,-5 H 53.616667 V 5 c 0,-2.77 2.23,-5 5,-5 h 10.766666 c 2.77,0 5,2.23 5,5 V 53.616667 H 123 c 2.77,0 5,2.23 5,5 v 10.766666 c 0,2.77 -2.23,5 -5,5 H 74.383333 V 123 c 0,2.77 -2.23,5 -5,5 H 58.616667 c -2.77,0 -5,-2.23 -5,-5 V 74.383333 Z"
       sodipodi:nodetypes="csscccsscccsscccssccc" />
  </g>
</svg>
