<?xml version="1.0" encoding="UTF-8" standalone="no"?>
<svg
   xmlns:dc="http://purl.org/dc/elements/1.1/"
   xmlns:cc="http://creativecommons.org/ns#"
   xmlns:rdf="http://www.w3.org/1999/02/22-rdf-syntax-ns#"
   xmlns:svg="http://www.w3.org/2000/svg"
   xmlns="http://www.w3.org/2000/svg"
   xmlns:sodipodi="http://sodipodi.sourceforge.net/DTD/sodipodi-0.dtd"
   xmlns:inkscape="http://www.inkscape.org/namespaces/inkscape"
   width="128"
   height="128"
   viewBox="0 0 33.866666 33.866668"
   version="1.1"
   id="svg8"
   sodipodi:docname="trashIcon-inkscapr.svg"
   inkscape:version="1.0.1 (c497b03c, 2020-09-10)">
  <defs
     id="defs2" />
  <sodipodi:namedview
     id="base"
     pagecolor="#ffffff"
     bordercolor="#666666"
     borderopacity="1.0"
     inkscape:pageopacity="0.0"
     inkscape:pageshadow="2"
     inkscape:zoom="5.7586094"
     inkscape:cx="60.760889"
     inkscape:cy="64.105187"
     inkscape:document-units="mm"
     inkscape:current-layer="layer1"
     inkscape:document-rotation="0"
     showgrid="false"
     units="px"
     inkscape:window-width="1680"
     inkscape:window-height="1050"
     inkscape:window-x="0"
     inkscape:window-y="0"
     inkscape:window-maximized="0" />
  <metadata
     id="metadata5">
    <rdf:RDF>
      <cc:Work
         rdf:about="">
        <dc:format>image/svg+xml</dc:format>
        <dc:type
           rdf:resource="http://purl.org/dc/dcmitype/StillImage" />
        <dc:title></dc:title>
      </cc:Work>
    </rdf:RDF>
  </metadata>
  <g
     inkscape:label="Layer 1"
     inkscape:groupmode="layer"
     id="layer1">
    <path
       id="rect835"
       style="fill-rule:evenodd;stroke-width:1.665;stroke-linecap:round;stroke-linejoin:round;stroke-miterlimit:4;stroke-dasharray:none;stroke-dashoffset:25.7008;paint-order:stroke fill markers"
       d="M 9.2604165,8.9958333 H 24.60625 c 1.465791,0 2.845501,-0.3937956 2.645833,1.0583337 l -2.910417,21.166667 c -0.199667,1.452129 -1.180042,2.645833 -2.645833,2.645833 h -9.525 c -1.465791,0 -2.4461651,-1.193704 -2.6458328,-2.645833 L 6.6145835,10.054167 C 6.4149157,8.6020378 7.7946255,8.9958333 9.2604165,8.9958333 Z"
       sodipodi:nodetypes="sssssssss" />
    <path
       id="rect838"
       style="fill-rule:evenodd;stroke-width:1.57839;stroke-linecap:round;stroke-linejoin:round;stroke-miterlimit:4;stroke-dasharray:none;stroke-dashoffset:25.7008;paint-order:stroke fill markers"
       d="m 14.221354,5.2916665 h 5.423959 z"
       sodipodi:nodetypes="ccc" />
    <path
       style="fill-opacity:1;stroke:none;stroke-width:0.264583px;stroke-linecap:butt;stroke-linejoin:miter;stroke-opacity:1"
       d="m 16.933333,1.8520833 c -5.434291,0.011827 -5.423958,3.4395831 -5.423958,3.4395831 l -5.4239583,10e-8 c -1.0993438,0 -2.1166667,1.8110731 -2.1166667,2.9104168 h 25.929167 c 0,-1.0993437 -1.017323,-2.9104168 -2.116667,-2.9104168 l -5.423958,-10e-8 c 0,0 0.01033,-3.4514102 -5.423959,-3.4395831 z m -2.711979,3.439583 c 0,0 0.03211,-1.8520828 2.711979,-1.852083 2.679871,-2e-7 2.71198,1.852083 2.71198,1.852083"
       id="path841"
       sodipodi:nodetypes="zcccccczczc" />
  </g>
</svg>
