<svg viewBox="0 0 33.867 33.867" xmlns="http://www.w3.org/2000/svg">
    <path d="m9.2604 8.9958h15.346c1.4658 0 2.8455-.3938 2.6458 1.0583l-2.9104 21.167c-.19967 1.4521-1.18 2.6458-2.6458 2.6458h-9.525c-1.4658 0-2.4462-1.1937-2.6458-2.6458l-2.9104-21.167c-.19967-1.4521 1.18-1.0583 2.6458-1.0583z" fill="currentColor"/>
    <path d="m14.221 5.2917h5.424z" fill="currentColor"/>
    <path d="m16.933 1.8521c-5.4343.011827-5.424 3.4396-5.424 3.4396l-5.424 1e-7c-1.0993 0-2.1167 1.8111-2.1167 2.9104h25.929c0-1.0993-1.0173-2.9104-2.1167-2.9104l-5.424-1e-7s.01033-3.4514-5.424-3.4396zm-2.712 3.4396s.03211-1.8521 2.712-1.8521c2.6799-2e-7 2.712 1.8521 2.712 1.8521" fill="currentColor"/>
</svg>
